<?xml version="1.0" encoding="utf-8"?>
<!-- Generator: Adobe Illustrator 16.0.0, SVG Export Plug-In . SVG Version: 6.00 Build 0)  -->
<!DOCTYPE svg PUBLIC "-//W3C//DTD SVG 1.1//EN" "http://www.w3.org/Graphics/SVG/1.1/DTD/svg11.dtd">
<svg version="1.1" id="Layer_1" xmlns="http://www.w3.org/2000/svg" xmlns:xlink="http://www.w3.org/1999/xlink" x="0px" y="0px"
	 width="1049.869px" height="999.875px" viewBox="0 0 1049.869 999.875" enable-background="new 0 0 1049.869 999.875"
	 xml:space="preserve">
<g>
	<path fill-rule="evenodd" clip-rule="evenodd" fill="#010101" d="M23.994,529.384c0-11.831-0.17-23.666,0.054-35.492
		c0.18-9.499,1.676-18.882,5.081-27.776c5.546-14.494,16.469-21.439,31.775-23.313c21.359-2.614,42.729-4.993,64.158-6.922
		c16.48-1.483,32.924-3.356,49.401-4.877c2.837-0.263,3.852-1.272,3.527-4.001c-0.404-3.393,0.65-6.591,1.538-9.794
		c1.473-5.31,5.201-8.239,10.425-8.254c5.397-0.016,9.321,3.188,10.628,8.679c0.116,0.485,0.25,0.967,0.333,1.458
		c0.486,2.886-1.354,7.393,0.929,8.37c3.227,1.381,7.513,0.577,11.312,0.276c10.226-0.809,20.437-1.821,30.648-2.801
		c10.875-1.043,21.746-2.131,32.616-3.221c9.053-0.907,18.085-2.116,27.158-2.708c13.902-0.906,27.829-1.465,41.752-1.997
		c2.308-0.088,2.451-0.955,2.71-2.907c1.067-8.034,1.77-16.107,3.685-24.047c2.683-11.13,9.202-19.418,18.145-25.954
		c6.851-5.006,14.429-3.9,20.864,1.798c8.83,7.819,12,18.458,15.342,29.083c0.05,0.158,0.066,0.326,0.112,0.486
		c3.245,11.476,3.253,11.198,15.591,11.544c16.32,0.457,32.569-1.551,48.872-1.022c2.57,0.083,3.315-0.609,3.359-3.272
		c0.32-19.79,0.708-39.58,1.067-59.369c0.887-48.785,0.394-97.575,1.125-146.351c0.212-14.113-0.056-28.28,0.844-42.37
		c1.107-17.349,0.802-34.913,4.123-51.977c3.693-18.972,9.337-37.565,24.594-51.08c5.246-4.647,11.368-8.208,16.781-12.824
		c5.646-4.815,13.615-3.728,20.553-1.407c3.553,1.188,6.01,4.389,6.384,8.324c0.773,8.141,3.974,15.253,8.221,22.104
		c7.417,11.966,10.02,25.554,12.136,39.145c2.24,14.395,3.406,28.912,4.274,43.487c1.058,17.751,1.167,35.519,2.001,53.253
		c1.613,34.297-0.425,68.613,1.037,102.86c1.074,25.145-0.03,50.267,0.948,75.369c0.278,7.12,0.873,14.247,0.78,21.383
		c-0.029,2.303,0.822,2.736,2.892,2.713c19.132-0.206,38.227,1.636,57.372,1.017c3.442-0.111,5.058-0.846,5.997-4.772
		c3.122-13.047,6.141-26.264,16.688-35.998c6.726-6.205,14.281-7.13,21.649-1.844c11.628,8.344,17.636,19.99,19.419,34.004
		c0.669,5.251,1.505,10.489,1.938,15.76c0.169,2.056,0.513,2.811,2.76,2.856c9.295,0.186,18.602,0.616,27.865,1.138
		c13.859,0.781,27.719,2.012,41.549,3.522c11.344,1.238,22.706,2.51,34.093,3.485c11.212,0.959,22.436,1.895,33.659,2.702
		c6.896,0.497,6.926,0.097,7.133-6.814c0.207-6.936,3.025-10.599,9.1-11.832c4.634-0.94,10.17,1.517,11.665,5.663
		c1.116,3.095,2.321,6.515,2.061,9.671c-0.458,5.556,1.81,6.277,6.734,6.579c11.711,0.718,23.359,2.399,35.043,3.6
		c11.032,1.134,22.087,2.059,33.113,3.246c16.615,1.788,33.26,3.204,49.735,6.3c13.095,2.461,19.915,11.235,24.503,22.399
		c3.558,8.657,4.888,17.958,4.965,27.278c0.195,23.661,0.069,47.324,0.063,70.986c-0.004,9.586-2.296,12.322-11.657,14.075
		c-11.576,2.169-23.225,3.396-35.007,4.053c-18.044,1.006-36.102,1.839-54.131,3.014c-17.845,1.162-35.675,2.642-53.513,3.964
		c-18.171,1.349-36.326,2.848-54.512,4.045c-13.547,0.891-27.082,2.044-40.637,2.949c-19.819,1.322-39.643,2.874-59.377,5.09
		c-8.923,1.002-18.262,0.522-26.634,4.979c-2.409,1.282-5.134,0.781-7.832,0.504c-7.08-0.727-14.193-1.123-21.291-1.681
		c-1.605-0.127-2.585,0.292-2.368,2.14c0.058,0.493,0.006,0.999,0.007,1.499c0.046,35.289-1.161,70.564-1.265,105.858
		c-0.044,15.119-1.53,30.434-7.375,44.882c-6.35,15.694-20.766,26.104-37.521,26.617c-10.911,0.334-21.63-0.352-31.352-6.013
		c-2.727-1.589-3.474,0.561-4.474,2.011c-6.508,9.433-9.928,20.175-12.842,31.091c-0.765,2.864-2.157,6.518-1.058,8.694
		c1.546,3.055,5.167,0.005,7.92,0.061c37.291,0.747,74.561-1.608,111.857-0.878c4.831,0.095,9.665-0.03,14.496,0.023
		c7.319,0.083,10.186,2.21,12.503,9.019c2.805,8.247,4.177,16.735,4.079,25.427c-0.152,13.628,0.903,27.307-1.027,40.865
		c-1.795,12.615-2.922,25.375-7.033,37.567c-3.294,9.771-9.425,13.265-19.445,10.576c-1.811-0.485-2.492,0.197-3.303,1.135
		c-3.117,3.606-7.186,4.418-11.69,4.412c-30.827-0.04-61.659-0.309-92.479,0.175c-8.043,0.126-16.24,0.128-24.273,1.695
		c-2.243,0.438-3.946,1.309-5.679,2.73c-6.598,5.415-13.971,8.393-22.789,8.514c-11.295,0.154-21.88-0.921-30.501-9.257
		c-2.107-2.038-5.154-2.353-7.881-2.693c-5.255-0.658-10.571-1.119-15.863-1.136c-31.994-0.1-63.988-0.072-95.981-0.024
		c-4.662,0.008-9.017-0.587-12.135-4.479c-1.328-1.657-2.531-1.192-4.25-0.638c-7.774,2.511-14.771-1.272-17.805-9.17
		c-3.969-10.332-4.981-21.265-6.808-32.04c-2.713-16.003-1.939-32.145-1.975-48.253c-0.02-9.025,1.543-17.771,4.392-26.374
		c1.801-5.438,5.494-7.959,10.715-7.991c24.494-0.151,49.025-0.87,73.474,0.201c17.649,0.773,35.263,0.177,52.882,0.739
		c1.985,0.063,4.073-0.065,5.924,0.508c3.178,0.982,4.177,0.235,3.594-3.075c-2.266-12.854-6.41-24.993-13.115-36.25
		c-2.009-3.372-3.75-3.932-7.662-2.18c-16.876,7.557-34.129,7.551-50.299-1.412c-9.355-5.186-14.728-14.657-18.056-24.854
		c-3.158-9.68-4.039-19.771-4.898-29.863c-2.106-24.771,0.116-49.61-1.18-74.357c-0.741-14.147-0.549-28.259-0.708-42.385
		c-0.032-2.866-1.155-3.643-3.455-3.068c-7.008,1.75-14.275,0.057-21.286,1.78c-2.274,0.56-4.683,0.38-6.867-0.624
		c-9.749-4.483-20.316-4.11-30.629-5.171c-13.662-1.405-27.335-2.712-41.019-3.892c-9.903-0.854-19.833-1.408-29.747-2.139
		c-17.507-1.291-35.008-2.658-52.518-3.907c-10.911-0.778-21.842-1.284-32.749-2.114c-15.681-1.194-31.345-2.608-47.022-3.856
		c-5.783-0.46-11.576-0.348-17.39-0.934c-9.726-0.98-19.589-0.531-29.352-1.255c-15.348-1.139-30.755-1.941-45.869-5.189
		c-6.431-1.383-9.084-4.934-9.122-12.292C23.948,554.046,23.994,541.715,23.994,529.384z M363.075,924.282
		c1.713,3.423,2.547,5.962,4.076,7.973c3.537,4.653,7.032,8.851,14.125,8.765c28.324-0.344,56.655,0.02,84.981-0.238
		c8.482-0.078,16.875,0.774,25.3,1.214c5.217,0.272,10.765,1.419,14.345,5.519c7.428,8.508,31.258,9.189,40.032-0.181
		c2.643-2.823,5.945-3.987,9.589-4.443c11.485-1.438,23.022-2.028,34.596-2.019c27.662,0.023,55.323-0.029,82.984,0.063
		c2.823,0.008,4.758-0.986,7.078-2.566c4.77-3.247,6.4-8.433,9.501-13.543c0.184,2.322,0.079,3.964,0.483,5.469
		c0.728,2.705,1.779,6.118,4.735,6.21c2.688,0.084,3.822-3.13,4.586-5.713c4.445-15.011,6.091-30.505,7.281-45.995
		c0.751-9.773,0.328-19.657,0.074-29.482c-0.17-6.545-1.108-13.033-2.937-19.388c-0.913-3.178-2.433-4.149-5.835-4.124
		c-30.101,0.225-60.199-0.027-90.297,1.007c-16.09,0.552-32.226-0.28-48.295,1.146c-3.855,0.342-4.754-1.033-4.675-4.703
		c0.079-3.664,0.513-7.247,1.169-10.789c3.069-16.565,8.286-32.305,18.788-45.808c2.608-3.352,6.31-5.48,10.366-2.878
		c8.818,5.66,18.444,7.975,28.657,7.032c16.66-1.534,22.56-4.957,30.136-20.958c5.891-12.444,6.069-26.203,6.743-39.477
		c1.323-26.053-0.553-52.189,1.132-78.291c0.717-11.118,0.193-22.322,0.061-33.484c-0.027-2.385,0.797-4.529,1.028-6.803
		c0.162-1.59,1.005-1.875,2.305-1.867c4.831,0.028,9.677-0.185,14.492,0.105c8.802,0.528,17.402,2.722,26.354-0.809
		c5.659-2.231,12.28-1.769,18.475-2.477c14.389-1.642,28.781-3.009,43.234-3.951c5.268-0.343,10.545-0.61,15.811-0.986
		c16.256-1.159,32.482-2.762,48.745-3.797c6.592-0.42,13.19-0.937,19.792-1.279c15.106-0.784,30.157-2.576,45.245-3.782
		c12.807-1.024,25.624-2.017,38.434-2.85c18.623-1.211,37.28-2.016,55.917-3.102c11.175-0.651,22.205-1.982,33.24-3.807
		c3.753-0.62,4.004-1.948,3.99-4.954c-0.094-21.163-0.096-42.325-0.027-63.487c0.027-8.928-0.502-17.846-3.157-26.347
		c-3.286-10.522-8.341-18.964-21.266-20.739c-13.327-1.831-26.633-3.568-40.027-4.821c-14.538-1.36-29.015-3.37-43.544-4.857
		c-11.785-1.207-23.63-1.858-35.406-3.136c-9.215-1-10.626-2.91-10.586-12.366c0.015-3.322-0.161-6.54-2.537-9.285
		c-0.471,2.824-0.412,5.601-0.482,8.375c-0.183,7.165-3.397,10.37-10.313,10.371c-13.879,0.004-27.63-1.743-41.438-2.785
		c-11.662-0.88-23.261-2.315-34.882-3.438c-15.403-1.488-30.784-3.419-46.25-3.624c-8.964-0.119-17.829-1.523-26.808-1.257
		c-3.55,0.104-7.287-1.274-7.153-5.711c0.146-4.854-0.758-9.574-1.292-14.29c-0.986-8.702-1.725-17.653-7.415-25.047
		c-10.92-14.187-15.567-14.907-24.558,1.766c-4.937,9.155-6.455,19.458-8.777,29.46c-0.275,1.185,0.291,3.09-1.781,2.848
		c-3.715-0.436-7.161,1.026-10.81,1.135c-21.786,0.649-43.523-1.376-65.301-1.059c-0.666,0.01-1.354,0.066-1.993-0.073
		c-2.745-0.599-4.368-1.627-4.317-5.159c0.128-8.766-0.253-17.537-0.658-26.314c-1.165-25.235,0.087-50.509-0.999-75.796
		c-1.47-34.224,0.599-68.517-1.034-102.792c-0.851-17.853-0.91-35.742-2.009-53.614c-1.01-16.438-2.39-32.787-5.216-48.996
		c-1.794-10.296-4.099-20.451-9.651-29.583c-4.335-7.127-8.389-14.459-9.243-22.983c-0.246-2.463-0.056-4.986-3.542-4.597
		c-3.769,0.42-8.882-1.942-10.392,3.818c-0.9,3.434-3.246,5.656-5.958,5.847c-7.225,0.508-10.789,5.657-14.087,10.568
		c-9.088,13.532-14.241,28.739-15.935,44.868c-1.567,14.915-2.508,29.923-3.023,44.914c-0.536,15.591-0.473,31.197-0.951,46.804
		c-1.102,35.913,0.301,71.847-0.923,107.794c-1.127,33.063-0.064,66.193-1.091,99.289c-0.148,4.765-2.133,6.139-6.043,5.971
		c-14.963-0.644-29.858,1.256-44.805,1.044c-10.107-0.143-20.23,0.449-30.311-0.938c-1.911-0.262-2.683-0.514-3.125-2.698
		c-1.747-8.625-3.532-17.247-6.754-25.514c-2.188-5.616-4.93-10.777-9.542-14.717c-2.347-2.004-4.614-3.041-7.87-0.605
		c-4.875,3.648-9.042,7.795-11.558,13.244c-4.836,10.474-5.258,21.876-6.059,33.126c-0.415,5.824-1.809,7.792-7.571,8.055
		c-5.278,0.24-10.567,0.661-15.813,0.844c-12.064,0.423-24.08,1.195-36.121,1.988c-14.96,0.986-29.79,3.016-44.697,4.36
		c-17.897,1.613-35.742,3.595-53.738,3.97c-4.771,0.1-6.723-1.928-8.229-5.911c-1.116-2.953-0.625-5.87-0.913-8.798
		c-0.141-1.437,0.847-3.283-1.128-4.351c-2.258,4.128-1.734,8.448-1.845,12.694c-0.158,6.095-1.409,7.41-7.196,8.273
		c-9.924,1.481-19.926,2.11-29.902,3.065c-17.807,1.704-35.544,4.147-53.354,5.819c-13.725,1.289-27.435,2.568-40.984,5.143
		c-5.574,1.059-10.178,3.315-13.746,8.417c-6.771,9.683-8.338,20.701-8.608,31.75c-0.575,23.481-0.197,46.987-0.13,70.482
		c0.005,1.673-1.043,3.703,2.321,4.38c14.389,2.894,29.001,3.598,43.55,4.793c10.061,0.828,20.242,0.293,30.28,1.278
		c5.793,0.569,11.561,0.464,17.322,0.894c16.418,1.227,32.818,2.705,49.24,3.887c10.2,0.734,20.385,1.627,30.605,2.19
		c15.438,0.852,30.821,2.647,46.245,3.804c11.689,0.877,23.446,1.004,35.093,2.229c4.961,0.521,9.899,0.432,14.822,0.891
		c13.085,1.222,26.183,2.393,39.221,4.013c6.268,0.779,12.861,0.54,18.565,4.018c1.05,0.639,2.082,1.014,3.276,0.854
		c9.653-1.293,19.347-1.97,29.087-1.964c6.689,0.005,7.179,0.319,7.248,7.17c0.174,17.437,0.229,34.865,0.874,52.307
		c0.702,18.971-0.102,37.991,0.255,56.981c0.222,11.813,1.296,23.661,4.048,35.177c2.48,10.378,6.791,20.362,16.99,25.2
		c14.572,6.913,29.324,5.587,43.434-2.117c4.884-2.666,8.364-2.379,11.59,2.002c12.493,16.97,18.659,36.169,19.874,57.103
		c0.186,3.2-0.75,4.143-4.079,4.273c-7.662,0.302-15.176-1.148-22.811-1.227c-16.101-0.166-32.188,0.117-48.315-0.62
		c-23.114-1.055-46.313-0.241-69.475-0.316c-2.145-0.007-2.983,0.601-3.771,2.7c-2.462,6.563-3.269,13.412-3.488,20.253
		c-0.599,18.699-0.294,37.395,2.951,55.897c1.294,7.383,2.354,14.838,4.994,21.922c0.723,1.938,2.131,3.94,3.975,3.927
		c1.831-0.014,3.178-2.025,3.973-3.945C362.875,930.348,363.026,927.957,363.075,924.282z"/>
	<path fill-rule="evenodd" clip-rule="evenodd" fill="#DB322F" d="M363.075,924.282c-0.048,3.675-0.199,6.065-1.135,8.325
		c-0.795,1.92-2.142,3.932-3.973,3.945c-1.843,0.014-3.252-1.988-3.975-3.927c-2.639-7.084-3.699-14.539-4.994-21.922
		c-3.246-18.503-3.55-37.198-2.951-55.897c0.219-6.841,1.025-13.689,3.488-20.253c0.788-2.1,1.625-2.707,3.771-2.7
		c23.162,0.075,46.36-0.738,69.475,0.316c16.127,0.737,32.214,0.454,48.315,0.62c7.635,0.078,15.149,1.528,22.811,1.227
		c3.33-0.131,4.265-1.073,4.079-4.273c-1.215-20.934-7.381-40.133-19.874-57.103c-3.226-4.381-6.706-4.668-11.59-2.002
		c-14.109,7.704-28.861,9.03-43.434,2.117c-10.199-4.838-14.51-14.822-16.99-25.2c-2.752-11.516-3.827-23.364-4.048-35.177
		c-0.356-18.99,0.447-38.011-0.255-56.981c-0.646-17.441-0.7-34.87-0.874-52.307c-0.068-6.851-0.559-7.165-7.248-7.17
		c-9.74-0.006-19.434,0.671-29.087,1.964c-1.194,0.16-2.226-0.215-3.276-0.854c-5.705-3.478-12.298-3.238-18.565-4.018
		c-13.039-1.62-26.136-2.791-39.221-4.013c-4.923-0.459-9.861-0.369-14.822-0.891c-11.646-1.226-23.403-1.353-35.093-2.229
		c-15.424-1.156-30.808-2.952-46.245-3.804c-10.22-0.563-20.405-1.456-30.605-2.19c-16.422-1.182-32.822-2.66-49.24-3.887
		c-5.761-0.43-11.529-0.324-17.322-0.894c-10.038-0.985-20.219-0.45-30.28-1.278c-14.548-1.195-29.161-1.899-43.55-4.793
		c-3.365-0.677-2.316-2.707-2.321-4.38c-0.066-23.495-0.444-47.001,0.13-70.482c0.271-11.048,1.837-22.066,8.608-31.75
		c3.568-5.102,8.172-7.358,13.746-8.417c13.549-2.575,27.259-3.854,40.984-5.143c17.81-1.672,35.547-4.115,53.354-5.819
		c9.976-0.955,19.979-1.583,29.902-3.065c5.787-0.864,7.038-2.178,7.196-8.273c0.11-4.247-0.414-8.566,1.845-12.694
		c1.975,1.068,0.987,2.915,1.128,4.351c0.288,2.928-0.204,5.846,0.913,8.798c1.505,3.983,3.458,6.01,8.229,5.911
		c17.997-0.375,35.841-2.357,53.738-3.97c14.907-1.344,29.737-3.374,44.697-4.36c12.041-0.793,24.056-1.565,36.121-1.988
		c5.246-0.184,10.535-0.604,15.813-0.844c5.762-0.263,7.157-2.23,7.571-8.055c0.801-11.25,1.223-22.652,6.059-33.126
		c2.515-5.449,6.683-9.596,11.558-13.244c3.255-2.436,5.523-1.399,7.87,0.605c4.611,3.94,7.354,9.102,9.542,14.717
		c3.222,8.268,5.007,16.889,6.754,25.514c0.442,2.184,1.214,2.436,3.125,2.698c10.081,1.387,20.204,0.795,30.311,0.938
		c14.947,0.212,29.842-1.688,44.805-1.044c3.91,0.167,5.895-1.206,6.043-5.971c1.026-33.095-0.036-66.225,1.091-99.289
		c1.224-35.947-0.179-71.881,0.923-107.794c0.478-15.606,0.415-31.213,0.951-46.804c0.515-14.991,1.456-29.999,3.023-44.914
		c1.693-16.129,6.846-31.336,15.935-44.868c3.299-4.911,6.863-10.06,14.087-10.568c2.711-0.191,5.057-2.413,5.958-5.847
		c1.51-5.76,6.623-3.398,10.392-3.818c3.486-0.389,3.296,2.134,3.542,4.597c0.854,8.524,4.908,15.856,9.243,22.983
		c5.553,9.132,7.857,19.287,9.651,29.583c2.826,16.208,4.206,32.558,5.216,48.996c1.099,17.873,1.158,35.761,2.009,53.614
		c1.633,34.275-0.436,68.568,1.034,102.792c1.086,25.288-0.166,50.561,0.999,75.796c0.405,8.777,0.786,17.548,0.658,26.314
		c-0.051,3.532,1.572,4.56,4.317,5.159c0.64,0.139,1.327,0.083,1.993,0.073c21.777-0.318,43.515,1.708,65.301,1.059
		c3.648-0.109,7.095-1.571,10.81-1.135c2.072,0.243,1.506-1.663,1.781-2.848c2.322-10.002,3.841-20.305,8.777-29.46
		c8.99-16.673,13.638-15.952,24.558-1.766c5.69,7.394,6.429,16.345,7.415,25.047c0.534,4.716,1.438,9.436,1.292,14.29
		c-0.134,4.437,3.604,5.816,7.153,5.711c8.979-0.266,17.844,1.138,26.808,1.257c15.466,0.204,30.847,2.136,46.25,3.624
		c11.621,1.123,23.22,2.559,34.882,3.438c13.808,1.042,27.559,2.789,41.438,2.785c6.916-0.001,10.131-3.207,10.313-10.371
		c0.07-2.774,0.012-5.551,0.482-8.375c2.376,2.745,2.552,5.963,2.537,9.285c-0.04,9.456,1.371,11.366,10.586,12.366
		c11.776,1.278,23.621,1.93,35.406,3.136c14.529,1.487,29.006,3.497,43.544,4.857c13.395,1.253,26.7,2.99,40.027,4.821
		c12.925,1.775,17.979,10.217,21.266,20.739c2.655,8.501,3.185,17.419,3.157,26.347c-0.068,21.162-0.066,42.324,0.027,63.487
		c0.014,3.006-0.237,4.334-3.99,4.954c-11.035,1.824-22.065,3.155-33.24,3.807c-18.637,1.086-37.294,1.891-55.917,3.102
		c-12.81,0.833-25.627,1.825-38.434,2.85c-15.088,1.206-30.139,2.998-45.245,3.782c-6.602,0.343-13.2,0.859-19.792,1.279
		c-16.263,1.035-32.489,2.638-48.745,3.797c-5.266,0.376-10.543,0.644-15.811,0.986c-14.453,0.942-28.846,2.31-43.234,3.951
		c-6.194,0.708-12.815,0.245-18.475,2.477c-8.952,3.53-17.553,1.337-26.354,0.809c-4.815-0.29-9.661-0.077-14.492-0.105
		c-1.3-0.008-2.143,0.277-2.305,1.867c-0.231,2.273-1.056,4.418-1.028,6.803c0.133,11.162,0.656,22.366-0.061,33.484
		c-1.685,26.102,0.191,52.238-1.132,78.291c-0.674,13.273-0.853,27.032-6.743,39.477c-7.576,16.001-13.476,19.424-30.136,20.958
		c-10.213,0.942-19.839-1.372-28.657-7.032c-4.057-2.603-7.758-0.474-10.366,2.878c-10.502,13.503-15.719,29.242-18.788,45.808
		c-0.656,3.542-1.09,7.125-1.169,10.789c-0.079,3.67,0.819,5.045,4.675,4.703c16.069-1.427,32.205-0.595,48.295-1.146
		c30.098-1.034,60.196-0.782,90.297-1.007c3.402-0.025,4.922,0.946,5.835,4.124c1.828,6.354,2.767,12.843,2.937,19.388
		c0.254,9.825,0.677,19.709-0.074,29.482c-1.19,15.49-2.836,30.984-7.281,45.995c-0.764,2.583-1.898,5.797-4.586,5.713
		c-2.956-0.092-4.008-3.505-4.735-6.21c-0.404-1.505-0.3-3.146-0.483-5.469c-3.101,5.11-4.731,10.296-9.501,13.543
		c-2.32,1.58-4.255,2.574-7.078,2.566c-27.661-0.092-55.322-0.039-82.984-0.063c-11.573-0.01-23.11,0.581-34.596,2.019
		c-3.644,0.456-6.946,1.62-9.589,4.443c-8.774,9.37-32.604,8.688-40.032,0.181c-3.58-4.1-9.127-5.246-14.345-5.519
		c-8.426-0.439-16.818-1.292-25.3-1.214c-28.326,0.258-56.657-0.105-84.981,0.238c-7.093,0.086-10.588-4.111-14.125-8.765
		C365.622,930.244,364.788,927.705,363.075,924.282z"/>
</g>
</svg>
