<?xml version="1.0" encoding="utf-8"?>
<!-- Generator: Adobe Illustrator 16.0.0, SVG Export Plug-In . SVG Version: 6.00 Build 0)  -->
<!DOCTYPE svg PUBLIC "-//W3C//DTD SVG 1.1//EN" "http://www.w3.org/Graphics/SVG/1.1/DTD/svg11.dtd">
<svg version="1.1" id="Layer_1" xmlns="http://www.w3.org/2000/svg" xmlns:xlink="http://www.w3.org/1999/xlink" x="0px" y="0px"
	 width="1051.973px" height="1051.99px" viewBox="0 0 1051.973 1051.99" enable-background="new 0 0 1051.973 1051.99"
	 xml:space="preserve">
<g>
	<path fill-rule="evenodd" clip-rule="evenodd" fill="#010101" d="M23.994,554.373c0-11.664-0.369-23.344,0.1-34.989
		c0.508-12.626,2.433-24.877,9.211-36.184c6.46-10.775,16.557-13.583,27.625-15.251c21.285-3.209,42.71-5.144,64.139-7.071
		c16.48-1.482,32.925-3.357,49.401-4.877c2.845-0.263,3.833-1.288,3.522-4.009c-0.408-3.565,0.714-6.918,1.687-10.27
		c1.433-4.935,5.212-7.761,10.28-7.771c5.07-0.011,8.903,2.863,10.309,7.736c0.23,0.798,0.496,1.594,0.639,2.408
		c0.508,2.882-1.35,7.389,0.94,8.367c3.229,1.379,7.514,0.571,11.314,0.271c10.226-0.809,20.436-1.82,30.648-2.8
		c10.875-1.044,21.745-2.132,32.615-3.222c9.053-0.908,18.085-2.116,27.158-2.707c13.902-0.906,27.829-1.465,41.752-1.996
		c2.318-0.089,2.443-0.973,2.702-2.915c1.071-8.034,1.772-16.107,3.687-24.047c2.686-11.129,9.206-19.417,18.15-25.95
		c6.851-5.004,14.426-3.896,20.862,1.806c8.829,7.82,11.998,18.459,15.338,29.084c0.05,0.158,0.067,0.326,0.113,0.486
		c3.242,11.469,3.25,11.191,15.596,11.538c16.32,0.457,32.569-1.552,48.872-1.021c2.583,0.084,3.301-0.631,3.352-3.28
		c0.377-19.956,0.699-39.913,1.064-59.868c0.891-48.619,0.396-97.243,1.127-145.852c0.213-14.112-0.056-28.28,0.844-42.37
		c1.108-17.35,0.801-34.913,4.125-51.976c3.695-18.97,9.337-37.566,24.598-51.078c5.247-4.645,11.366-8.211,16.781-12.823
		c5.65-4.813,13.617-3.715,20.555-1.399c3.553,1.187,6.004,4.392,6.379,8.326c0.775,8.141,3.975,15.253,8.221,22.104
		c7.417,11.967,10.016,25.556,12.135,39.146c2.243,14.394,3.401,28.914,4.273,43.487c1.063,17.752,1.168,35.519,2.001,53.253
		c1.613,34.297-0.425,68.612,1.038,102.86c1.073,25.145-0.03,50.266,0.947,75.37c0.278,7.119,0.873,14.245,0.78,21.382
		c-0.03,2.311,0.837,2.729,2.899,2.707c19.13-0.204,38.226,1.637,57.37,1.019c3.448-0.111,5.055-0.858,5.993-4.779
		c3.121-13.048,6.143-26.263,16.691-35.997c6.724-6.201,14.282-7.123,21.649-1.835c11.63,8.344,17.629,19.993,19.415,34.006
		c0.669,5.251,1.61,10.488,1.906,15.76c0.149,2.665,1.208,2.755,3.297,2.838c9.623,0.383,19.287,0.507,28.861,1.173
		c13.352,0.928,26.725,1.971,40.056,3.487c11.499,1.308,23.035,2.552,34.587,3.545c11.047,0.949,22.106,1.847,33.162,2.652
		c6.889,0.502,6.917,0.098,7.128-6.819c0.139-4.558,1.303-8.701,5.778-10.798c4.197-1.967,8.529-1.761,12.238,1.174
		c4.186,3.313,4.885,8.521,4.761,13.147c-0.147,5.541,1.872,6.26,6.787,6.563c11.711,0.722,23.358,2.408,35.043,3.6
		c11.199,1.143,22.428,1.999,33.612,3.261c16.439,1.856,32.928,3.191,49.237,6.283c13.091,2.481,19.912,11.242,24.498,22.406
		c3.557,8.658,4.887,17.959,4.964,27.279c0.195,23.661,0.069,47.324,0.063,70.986c-0.004,9.583-2.294,12.315-11.664,14.07
		c-11.575,2.168-23.225,3.396-35.006,4.052c-18.044,1.006-36.103,1.839-54.131,3.014c-17.845,1.163-35.676,2.642-53.514,3.964
		c-18.17,1.349-36.325,2.85-54.511,4.044c-13.548,0.89-27.082,2.046-40.638,2.95c-19.819,1.321-39.641,2.875-59.377,5.09
		c-8.923,1.002-18.269,0.509-26.63,4.986c-2.257,1.208-4.856,1.104-7.346,0.554c-7.018-1.552-14.274-0.006-21.288-1.7
		c-1.986-0.479-3.223,0.282-2.855,2.606c0.052,0.325,0.006,0.666,0.008,0.999c0.045,35.29-1.159,70.565-1.266,105.859
		c-0.046,15.118-1.53,30.434-7.376,44.881c-6.351,15.691-20.77,26.101-37.525,26.612c-10.912,0.334-21.63-0.354-31.352-6.015
		c-2.731-1.592-3.473,0.57-4.471,2.018c-6.506,9.433-9.93,20.174-12.839,31.091c-0.765,2.865-2.16,6.521-1.058,8.693
		c1.546,3.048,5.19,0.057,7.922,0.047c34.12-0.112,68.241-0.536,102.362-0.844c7.997-0.072,15.997-0.059,23.995,0.003
		c7.314,0.057,10.18,2.209,12.497,9.02c2.807,8.248,4.175,16.736,4.078,25.427c-0.15,13.628,0.904,27.307-1.026,40.866
		c-1.797,12.615-2.923,25.374-7.034,37.566c-3.296,9.77-9.414,13.253-19.449,10.569c-1.813-0.484-2.493,0.205-3.302,1.141
		c-3.119,3.605-7.188,4.415-11.692,4.408c-27.829-0.042-55.656-0.009-83.484-0.027c-11.126-0.008-22.205,0.675-33.259,1.927
		c-2.305,0.262-3.954,1.283-5.687,2.705c-6.6,5.413-13.973,8.389-22.791,8.511c-11.296,0.155-21.879-0.926-30.5-9.26
		c-2.107-2.038-5.156-2.361-7.882-2.691c-5.423-0.656-10.905-1.118-16.363-1.136c-31.827-0.101-63.654-0.072-95.481-0.024
		c-4.658,0.008-9.01-0.587-12.127-4.474c-1.332-1.662-2.539-1.197-4.261-0.641c-7.769,2.511-14.765-1.278-17.799-9.18
		c-3.968-10.331-4.984-21.264-6.806-32.04c-2.817-16.669-1.984-33.48-1.935-50.251c0.026-8.84,1.74-17.462,4.878-25.774
		c1.793-4.747,5.667-6.561,10.196-6.586c24.495-0.14,49.025-0.868,73.474,0.202c17.649,0.772,35.263,0.177,52.882,0.739
		c1.985,0.063,4.073-0.064,5.923,0.51c3.195,0.992,4.17,0.208,3.586-3.085c-2.309-13.018-6.495-25.31-13.388-36.669
		c-1.895-3.123-3.499-3.466-6.922-1.906c-16.131,7.35-32.629,7.543-48.597-0.096c-10.753-5.145-16.465-15.125-20.199-26.034
		c-3.296-9.629-4.066-19.76-4.924-29.854c-2.105-24.771,0.116-49.61-1.181-74.356c-0.741-14.148-0.55-28.26-0.708-42.385
		c-0.032-2.882-1.18-3.635-3.463-3.06c-7.007,1.765-14.276,0.047-21.286,1.78c-2.273,0.562-4.683,0.377-6.866-0.628
		c-9.748-4.487-20.317-4.107-30.629-5.169c-13.662-1.406-27.335-2.712-41.019-3.893c-9.903-0.853-19.833-1.406-29.748-2.138
		c-17.506-1.291-35.007-2.659-52.517-3.908c-10.911-0.778-21.842-1.283-32.749-2.112c-15.681-1.195-31.345-2.609-47.022-3.858
		c-5.783-0.46-11.576-0.347-17.39-0.933c-9.726-0.98-19.589-0.53-29.352-1.255c-15.348-1.14-30.755-1.942-45.868-5.191
		c-6.427-1.383-9.078-4.936-9.115-12.296C23.949,579.035,23.994,566.705,23.994,554.373z M190.973,444.209
		c-3.315,3.984-2.831,8.397-3.059,12.749c-0.168,3.213-0.339,7.138-4.396,7.852c-6.123,1.078-12.362,1.539-18.565,2.116
		c-8.19,0.762-16.411,1.226-24.588,2.097c-14.343,1.528-28.639,3.539-43.001,4.841c-13.715,1.244-27.39,2.658-40.941,5.124
		c-6.023,1.095-10.719,3.875-14.288,9.27c-5.869,8.875-7.644,18.928-7.911,28.908c-0.659,24.646-0.211,49.32-0.237,73.982
		c-0.001,1.696,0.322,2.438,2.348,2.862c14.19,2.969,28.631,3.807,43.005,4.745c12.019,0.782,24.063,1.435,36.096,2.017
		c14.831,0.718,29.607,1.885,44.397,3.085c12.796,1.038,25.608,1.862,38.405,2.926c13.784,1.146,27.606,1.839,41.396,3.056
		c11.833,1.045,23.759,1.079,35.576,2.246c4.783,0.473,9.552,0.504,14.312,0.906c14.569,1.231,29.147,2.414,43.678,4.009
		c7.3,0.802,14.631,1.427,21.9,2.706c3.482,0.612,6.017,3.623,9.688,3.154c9.485-1.209,18.997-1.988,28.568-1.947
		c7.118,0.03,7.53,0.248,7.568,7.312c0.103,19.103,0.091,38.198,0.949,57.297c0.938,20.911-1.003,41.876,1.017,62.795
		c0.771,7.995,1.173,16.049,3.134,23.843c2.644,10.5,6.703,20.679,17.087,25.604c14.552,6.902,29.272,5.55,43.365-2.079
		c4.96-2.684,8.354-2.476,11.574,1.889c12.583,17.061,18.801,36.363,19.938,57.438c0.162,3.001-0.628,4.145-3.824,3.957
		c-5.105-0.299-10.228-0.72-15.303-0.896c-20.25-0.707-40.517-0.043-60.796-0.982c-19.123-0.887-38.318-0.19-57.482-0.19
		c-11.146,0-11.263-0.023-13.428,10.791c-0.77,3.849-1.023,7.835-1.156,11.771c-0.707,21.014,0.226,41.941,4.029,62.659
		c0.936,5.101,2.052,10.19,3.86,15.111c0.812,2.208,2.215,4.37,4.136,4.297c1.845-0.07,3.278-2.165,4.073-4.427
		c0.77-2.192,0.687-4.41,1.127-7.532c1.528,3.07,2.353,5.606,3.875,7.611c3.524,4.639,6.935,8.913,14.059,8.84
		c31.991-0.328,63.988-0.127,95.984-0.158c5.13-0.006,10.151,1.067,15.292,1.224c4.836,0.148,9.605,1.912,13.439,5.239
		c9.821,8.522,26.035,9.439,37.068,2.104c3.752-2.496,6.952-5.775,11.798-6.629c8.325-1.467,16.785-1.565,25.099-1.708
		c31.152-0.534,62.32-0.25,93.481-0.154c2.877,0.009,4.721-1.194,7.015-2.729c4.79-3.203,6.232-8.501,9.381-13.289
		c0.172,2.202,0.063,3.894,0.479,5.444c0.722,2.699,1.8,6.106,4.754,6.152c2.633,0.04,3.8-3.151,4.563-5.743
		c4.37-14.831,6.017-30.142,7.243-45.434c0.824-10.266,0.46-20.663,0.048-30.979c-0.266-6.652-1.004-13.342-3.442-19.722
		c-0.76-1.985-1.39-2.856-3.673-2.793c-25.092,0.692-50.181-0.472-75.302,0.829c-21.881,1.133-43.87-0.25-65.777,1.274
		c-3.352,0.233-3.684-1.227-3.76-4.036c-0.155-5.665,0.901-11.146,2.136-16.566c3.354-14.738,8.333-28.832,17.902-40.854
		c2.572-3.231,6.344-5.265,9.986-2.9c8.796,5.712,18.316,7.904,28.546,7.264c18.155-1.136,26.468-7.645,32.314-26.068
		c4.38-13.805,5.314-28.408,5.106-42.877c-0.501-34.776,1.321-69.521,1.08-104.288c-0.004-0.5-0.025-1.002,0.011-1.499
		c0.301-4.145,1.49-7.041,6.703-6.296c3.43,0.49,7.01-0.16,10.481,0.154c9.296,0.843,18.25,1.737,27.795-0.733
		c14.567-3.771,29.857-3.96,44.88-5.279c6.245-0.547,12.586-0.617,18.772-1.288c15.55-1.686,31.177-2.152,46.731-3.672
		c11.488-1.123,23.07-1.255,34.587-2.144c14.914-1.15,29.793-2.761,44.707-3.898c13.133-1.001,26.271-2.03,39.407-2.88
		c18.283-1.182,36.598-1.983,54.895-3.077c11.49-0.688,22.846-1.976,34.204-3.822c3.991-0.649,3.813-2.3,3.806-5.075
		c-0.049-21.163-0.074-42.327-0.004-63.49c0.03-8.919-0.501-17.839-3.188-26.308c-2.616-8.244-5.902-16.661-15.534-19.306
		c-13.141-3.609-26.772-4.295-40.22-5.976c-11.411-1.426-22.951-1.813-34.371-3.174c-16.306-1.945-32.627-3.677-49-4.892
		c-9.576-0.711-11.721-2.905-11.663-12.833c0.02-3.213-0.378-6.24-2.441-9.008c-0.577,2.757-0.537,5.483-0.585,8.208
		c-0.131,7.397-3.342,10.595-10.536,10.617c-13.875,0.043-27.611-1.803-41.41-2.807c-11.493-0.836-22.913-2.275-34.361-3.375
		c-18.381-1.766-36.71-3.731-55.208-3.928c-6.252-0.067-12.508-0.885-18.799-1.025c-3.898-0.087-6.528-2.126-6.753-6.776
		c-0.323-6.711-1.073-13.416-1.96-20.082c-1.478-11.114-5.783-20.566-15.424-27.304c-3.478-2.43-5.711-1.625-8.237,0.557
		c-4.458,3.85-7.194,8.854-9.295,14.282c-3.248,8.39-5.089,17.152-6.907,25.916c-0.288,1.388-0.187,2.699-2.133,2.533
		c-4.486-0.382-8.805,1.01-13.293,1.121c-20.789,0.52-41.52-1.524-62.296-1.118c-1.323,0.026-2.564-0.352-3.851-0.657
		c-2.061-0.488-2.516-1.413-2.544-3.361c-0.136-9.271-0.725-18.587-0.697-27.798c0.108-36.108-1.091-72.19-1.338-108.288
		c-0.158-23.097,0.569-46.183-0.689-69.305c-0.988-18.167-0.938-36.394-2.059-54.596c-1.011-16.424-2.403-32.76-5.235-48.948
		c-1.796-10.259-4.142-20.38-9.703-29.485c-4.334-7.096-8.393-14.416-9.173-22.936c-0.229-2.505-0.126-4.946-3.589-4.539
		c-3.758,0.443-8.863-1.934-10.352,3.846c-0.885,3.436-3.282,5.701-5.95,5.821c-7.128,0.322-10.819,5.459-13.902,10.117
		c-9.123,13.776-14.546,29.202-16.155,45.678c-1.44,14.756-2.326,29.58-3.028,44.393c-0.675,14.25-0.344,28.523-0.839,42.801
		c-1.298,37.402,0.285,74.84-1.003,112.285c-1.138,33.063-0.027,66.19-1.077,99.286c-0.148,4.681-2.281,5.579-5.829,5.662
		c-10.769,0.25-21.533,0.351-32.308,0.796c-14.224,0.588-28.546,1.063-42.792-0.692c-2.119-0.261-2.914-0.533-3.394-2.93
		c-1.726-8.604-3.548-17.203-6.761-25.443c-2.183-5.598-4.974-10.73-9.595-14.648c-1.873-1.587-4.034-3.131-6.638-1.318
		c-7.192,5.007-12.604,11.255-14.919,20.022c-2.357,8.927-3.296,18.019-3.844,27.161c-0.357,5.967-1.92,7.842-8.046,8.067
		c-4.78,0.174-9.602,0.738-14.302,0.785c-16.711,0.166-33.304,1.481-49.896,3.207c-10.785,1.121-21.606,1.896-32.382,3.095
		c-17.357,1.93-34.706,3.876-52.2,3.921c-6.641,0.018-9.933-3.161-10.195-9.94C190.878,450.077,190.973,447.142,190.973,444.209z"/>
	<path fill-rule="evenodd" clip-rule="evenodd" fill="#268AD1" d="M190.973,444.209c0,2.932-0.094,5.867,0.019,8.793
		c0.262,6.78,3.554,9.958,10.195,9.94c17.495-0.045,34.843-1.991,52.2-3.921c10.776-1.199,21.598-1.975,32.382-3.095
		c16.592-1.726,33.186-3.041,49.896-3.207c4.7-0.047,9.522-0.61,14.302-0.785c6.126-0.226,7.689-2.101,8.046-8.067
		c0.547-9.142,1.486-18.233,3.844-27.161c2.314-8.767,7.727-15.015,14.919-20.022c2.604-1.813,4.765-0.27,6.638,1.318
		c4.621,3.917,7.412,9.05,9.595,14.648c3.212,8.24,5.035,16.838,6.761,25.443c0.48,2.397,1.275,2.669,3.394,2.93
		c14.245,1.755,28.568,1.28,42.792,0.692c10.775-0.445,21.539-0.546,32.308-0.796c3.548-0.083,5.681-0.981,5.829-5.662
		c1.05-33.096-0.061-66.223,1.077-99.286c1.288-37.444-0.295-74.882,1.003-112.285c0.495-14.278,0.164-28.551,0.839-42.801
		c0.702-14.813,1.587-29.637,3.028-44.393c1.609-16.476,7.032-31.901,16.155-45.678c3.083-4.658,6.774-9.795,13.902-10.117
		c2.667-0.12,5.065-2.385,5.95-5.821c1.488-5.78,6.594-3.403,10.352-3.846c3.463-0.407,3.359,2.034,3.589,4.539
		c0.78,8.52,4.839,15.84,9.173,22.936c5.562,9.105,7.907,19.226,9.703,29.485c2.832,16.188,4.225,32.524,5.235,48.948
		c1.121,18.202,1.07,36.429,2.059,54.596c1.259,23.122,0.531,46.208,0.689,69.305c0.247,36.097,1.446,72.18,1.338,108.288
		c-0.027,9.21,0.562,18.527,0.697,27.798c0.028,1.948,0.483,2.873,2.544,3.361c1.286,0.305,2.527,0.683,3.851,0.657
		c20.776-0.406,41.507,1.638,62.296,1.118c4.488-0.111,8.807-1.503,13.293-1.121c1.946,0.166,1.845-1.145,2.133-2.533
		c1.818-8.764,3.659-17.525,6.907-25.916c2.101-5.428,4.837-10.432,9.295-14.282c2.526-2.181,4.76-2.987,8.237-0.557
		c9.641,6.738,13.946,16.19,15.424,27.304c0.887,6.666,1.637,13.371,1.96,20.082c0.225,4.65,2.854,6.689,6.753,6.776
		c6.291,0.14,12.547,0.958,18.799,1.025c18.498,0.197,36.827,2.162,55.208,3.928c11.448,1.101,22.868,2.539,34.361,3.375
		c13.799,1.004,27.535,2.85,41.41,2.807c7.194-0.022,10.405-3.22,10.536-10.617c0.048-2.724,0.008-5.45,0.585-8.208
		c2.063,2.768,2.461,5.795,2.441,9.008c-0.058,9.928,2.087,12.122,11.663,12.833c16.373,1.215,32.694,2.947,49,4.892
		c11.42,1.362,22.96,1.749,34.371,3.174c13.447,1.68,27.079,2.367,40.22,5.976c9.632,2.646,12.918,11.063,15.534,19.306
		c2.688,8.469,3.219,17.389,3.188,26.308c-0.07,21.163-0.045,42.327,0.004,63.49c0.007,2.775,0.186,4.426-3.806,5.075
		c-11.358,1.847-22.714,3.135-34.204,3.822c-18.297,1.094-36.611,1.896-54.895,3.077c-13.136,0.85-26.274,1.879-39.407,2.88
		c-14.914,1.138-29.793,2.748-44.707,3.898c-11.517,0.889-23.099,1.021-34.587,2.144c-15.555,1.52-31.182,1.986-46.731,3.672
		c-6.187,0.671-12.527,0.741-18.772,1.288c-15.022,1.319-30.313,1.508-44.88,5.279c-9.545,2.471-18.499,1.576-27.795,0.733
		c-3.472-0.314-7.052,0.336-10.481-0.154c-5.213-0.745-6.402,2.151-6.703,6.296c-0.036,0.497-0.015,0.999-0.011,1.499
		c0.241,34.768-1.581,69.512-1.08,104.288c0.208,14.469-0.727,29.072-5.106,42.877c-5.847,18.424-14.159,24.933-32.314,26.068
		c-10.229,0.641-19.75-1.552-28.546-7.264c-3.643-2.364-7.414-0.331-9.986,2.9c-9.569,12.021-14.548,26.115-17.902,40.854
		c-1.234,5.421-2.291,10.901-2.136,16.566c0.076,2.81,0.408,4.27,3.76,4.036c21.907-1.524,43.896-0.142,65.777-1.274
		c25.121-1.301,50.21-0.137,75.302-0.829c2.283-0.063,2.913,0.808,3.673,2.793c2.438,6.38,3.177,13.069,3.442,19.722
		c0.412,10.315,0.776,20.713-0.048,30.979c-1.227,15.292-2.873,30.603-7.243,45.434c-0.764,2.592-1.931,5.783-4.563,5.743
		c-2.954-0.046-4.032-3.453-4.754-6.152c-0.415-1.551-0.307-3.242-0.479-5.444c-3.148,4.788-4.591,10.086-9.381,13.289
		c-2.294,1.534-4.138,2.737-7.015,2.729c-31.161-0.096-62.329-0.38-93.481,0.154c-8.313,0.143-16.773,0.241-25.099,1.708
		c-4.846,0.854-8.046,4.133-11.798,6.629c-11.033,7.336-27.247,6.419-37.068-2.104c-3.833-3.327-8.603-5.091-13.439-5.239
		c-5.141-0.156-10.162-1.229-15.292-1.224c-31.996,0.031-63.993-0.17-95.984,0.158c-7.125,0.073-10.535-4.201-14.059-8.84
		c-1.523-2.005-2.348-4.541-3.875-7.611c-0.441,3.122-0.358,5.34-1.127,7.532c-0.795,2.262-2.228,4.356-4.073,4.427
		c-1.92,0.073-3.324-2.089-4.136-4.297c-1.808-4.921-2.924-10.011-3.86-15.111c-3.803-20.718-4.736-41.646-4.029-62.659
		c0.133-3.936,0.387-7.922,1.156-11.771c2.165-10.814,2.283-10.791,13.428-10.791c19.164,0,38.36-0.696,57.482,0.19
		c20.28,0.939,40.546,0.275,60.796,0.982c5.075,0.177,10.198,0.598,15.303,0.896c3.196,0.188,3.986-0.956,3.824-3.957
		c-1.137-21.074-7.355-40.377-19.938-57.438c-3.219-4.364-6.613-4.572-11.574-1.889c-14.092,7.629-28.813,8.981-43.365,2.079
		c-10.384-4.925-14.443-15.104-17.087-25.604c-1.961-7.794-2.363-15.848-3.134-23.843c-2.02-20.919-0.078-41.884-1.017-62.795
		c-0.858-19.099-0.846-38.194-0.949-57.297c-0.038-7.063-0.45-7.281-7.568-7.312c-9.571-0.041-19.083,0.738-28.568,1.947
		c-3.672,0.469-6.206-2.542-9.688-3.154c-7.269-1.279-14.6-1.904-21.9-2.706c-14.531-1.595-29.109-2.777-43.678-4.009
		c-4.76-0.402-9.529-0.434-14.312-0.906c-11.817-1.167-23.743-1.201-35.576-2.246c-13.79-1.217-27.612-1.91-41.396-3.056
		c-12.797-1.063-25.609-1.888-38.405-2.926c-14.79-1.2-29.566-2.367-44.397-3.085c-12.033-0.582-24.077-1.234-36.096-2.017
		c-14.374-0.938-28.815-1.776-43.005-4.745c-2.025-0.424-2.349-1.166-2.348-2.862c0.026-24.662-0.422-49.337,0.237-73.982
		c0.267-9.979,2.042-20.033,7.911-28.908c3.569-5.396,8.265-8.175,14.288-9.27c13.551-2.466,27.226-3.879,40.941-5.124
		c14.362-1.303,28.658-3.313,43.001-4.841c8.178-0.871,16.398-1.335,24.588-2.097c6.203-0.577,12.442-1.038,18.565-2.116
		c4.057-0.714,4.229-4.638,4.396-7.852C188.142,452.606,187.657,448.193,190.973,444.209z"/>
</g>
</svg>
